PathFileType	4	(X/Y/Z)	C:/Users/opensim2020/Desktop/walking_exp_matlab/subject06_walking23_straight_02.trc	
DataRate	CameraRate	NumFrames	NumMarkers	Units	OrigDataRate	OrigDataStartFrame	OrigNumFrames	
100.00	100.00	4	45	mm	100.00	1362	114	
Frame#	Time	LFHD			RFHD			LBHD			RBHD			C7			T10			CLAV			STRN			RBAK			LSHO			LUPA			LELB			LFRM			LWRA			LWRB			LFIN			RSHO			RUPA			RELB			RFRM			RWRA			RWRB			RFIN			LASI			RASI			LPSI			RPSI			LTHI			LKNE			LTIB			LANK			LHEE			LTOE			RTHI			RKNE			RTIB			RANK			RHEE			RTOE			*39			*40			*41			*42			*43			*44			
		X1	Y1	Z1	X2	Y2	Z2	X3	Y3	Z3	X4	Y4	Z4	X5	Y5	Z5	X6	Y6	Z6	X7	Y7	Z7	X8	Y8	Z8	X9	Y9	Z9	X10	Y10	Z10	X11	Y11	Z11	X12	Y12	Z12	X13	Y13	Z13	X14	Y14	Z14	X15	Y15	Z15	X16	Y16	Z16	X17	Y17	Z17	X18	Y18	Z18	X19	Y19	Z19	X20	Y20	Z20	X21	Y21	Z21	X22	Y22	Z22	X23	Y23	Z23	X24	Y24	Z24	X25	Y25	Z25	X26	Y26	Z26	X27	Y27	Z27	X28	Y28	Z28	X29	Y29	Z29	X30	Y30	Z30	X31	Y31	Z31	X32	Y32	Z32	X33	Y33	Z33	X34	Y34	Z34	X35	Y35	Z35	X36	Y36	Z36	X37	Y37	Z37	X38	Y38	Z38	X39	Y39	Z39	X40	Y40	Z40	X41	Y41	Z41	X42	Y42	Z42	X43	Y43	Z43	X44	Y44	Z44	X45	Y45	Z45	

86	0.850	-895.05859	-391.20721	1631.95898	-1025.59045	-414.51019	1632.40527	-923.41809	-259.45724	1581.25269	-1050.79419	-284.40927	1586.19727	-977.80023	-268.74716	1422.79333	-984.51196	-248.23282	1091.94080	-976.57196	-384.16962	1352.59314	-968.10187	-433.61673	1182.08972	-1053.56580	-204.72614	1248.01001	-816.10797	-322.77750	1379.74976	-742.37885	-347.51190	1180.81714	-728.50775	-367.38431	1071.34814	-712.64539	-477.31415	972.86237	-762.13672	-597.27008	942.07098	-727.96173	-562.64532	891.07227	-728.50488	-650.42169	871.76129	-1138.96069	-336.79742	1380.31604	-1226.28137	-269.23657	1191.96814	-1240.34753	-256.05203	1070.10168	-1261.87878	-240.41673	951.34149	-1235.50586	-256.99731	798.87585	-1277.95300	-207.25485	817.93170	-1278.36267	-216.21864	732.45587	-875.50348	-423.59070	933.50543	-1093.55994	-440.97040	956.84229	-910.59375	-267.60660	955.57996	-1076.56372	-284.14435	971.66791	-822.03882	-335.72440	610.92334	-836.68390	-325.60712	447.30951	-848.51208	-119.32056	305.76328	-887.07513	17.19100	202.82645	-933.94672	42.19245	232.53061	-899.15863	-7.36488	56.55661	-1161.06946	-468.47168	633.32141	-1128.56543	-513.41541	517.36188	-1119.86072	-507.37946	248.65610	-1065.35938	-510.95038	66.64213	-1017.92578	-475.02274	43.96585	-1071.04321	-666.46295	32.24760	-967.89746	-303.46652	1677.53601															 
87	0.860	-895.92145	-404.81357	1634.74292	-1026.31995	-428.64468	1634.96912	-924.87653	-273.44217	1583.63196	-1051.93323	-298.62967	1588.52722	-979.03589	-282.91364	1425.59070	-985.65936	-261.63062	1094.85266	-977.16644	-398.09326	1355.10144	-968.54443	-447.19550	1184.41565	-1054.98157	-218.92256	1250.99170	-817.08490	-336.17313	1382.21814	-743.80780	-359.97549	1183.09229	-730.34387	-377.57486	1073.12854	-713.74890	-485.29358	971.68793	-762.37793	-604.90753	937.54895	-728.24084	-568.59869	887.43329	-728.42932	-655.67664	865.67383	-1139.80847	-351.94122	1382.88782	-1228.01953	-286.34543	1193.92688	-1242.18176	-274.12564	1072.10413	-1263.78052	-260.20773	953.08990	-1236.98901	-279.08041	800.91925	-1280.02795	-229.21815	819.29138	-1280.43518	-239.63496	734.00641	-876.30994	-436.90924	935.97491	-1094.95459	-453.82977	959.40674	-911.72791	-280.73819	957.58862	-1077.82849	-297.23334	973.86078	-823.84064	-355.24338	612.12305	-837.89233	-350.12109	448.79279	-848.14429	-144.63023	308.56815	-886.93781	-4.53005	210.01346	-934.14752	20.17350	239.61938	-897.54907	-26.65863	61.96389	-1161.69385	-477.05258	633.38586	-1129.74658	-521.64954	517.12799	-1120.14575	-509.67877	248.49222	-1065.18872	-510.97821	66.71367	-1017.77795	-474.97913	44.14151	-1071.20947	-666.49817	32.04542	-969.22754	-317.25272	1680.06152															 
88	0.870	-896.77429	-418.45920	1637.55835	-1026.99243	-442.67139	1637.49524	-925.80566	-286.81638	1586.63062	-1053.02869	-312.81708	1590.88782	-980.18933	-296.88318	1428.48999	-986.78058	-275.07596	1097.71692	-977.76093	-411.84427	1357.59375	-969.11621	-460.53500	1186.81274	-1056.53491	-232.85597	1254.20483	-817.94244	-349.39520	1384.67175	-744.99530	-371.91754	1185.27075	-731.88776	-387.64539	1074.66211	-714.82886	-492.66901	970.29004	-762.56354	-612.02740	932.70654	-728.71826	-573.57544	883.81702	-728.39246	-660.13312	859.11389	-1140.58191	-366.86359	1385.59302	-1229.63379	-303.45767	1196.09729	-1243.94714	-292.14972	1074.24438	-1265.55420	-280.22275	955.00220	-1238.27417	-301.50513	803.30524	-1281.79578	-251.73483	820.75580	-1282.28979	-263.85754	735.76849	-876.87683	-449.92633	938.69537	-1095.90344	-466.63321	961.74982	-913.16925	-293.75626	959.68304	-1078.89026	-310.52548	976.19983	-825.42053	-374.57178	613.87946	-839.29340	-374.50101	450.78424	-847.95929	-169.27678	311.63968	-887.34283	-27.00752	216.42841	-934.62390	-0.48306	244.54515	-896.60547	-52.68047	68.11493	-1161.93127	-485.43271	633.04895	-1130.64429	-529.56171	516.71466	-1120.35535	-511.85385	248.59657	-1064.91003	-511.20752	66.99265	-1017.49261	-474.96124	44.47368	-1071.17944	-666.66986	31.88050	-970.35089	-331.18863	1682.67090															 
89	0.880	-897.24927	-432.05975	1640.16980	-1027.51331	-456.74045	1639.90222	-926.86389	-300.81332	1589.03052	-1053.91968	-326.95642	1593.43872	-981.44849	-310.38596	1431.27686	-988.12939	-288.11597	1100.56018	-978.31348	-425.33853	1360.04016	-969.79706	-473.80133	1189.25867	-1058.24646	-246.84645	1257.49097	-818.81207	-362.32129	1386.98059	-745.77826	-383.53131	1187.45776	-733.31946	-397.34854	1076.08630	-715.78064	-499.76181	968.70001	-762.71527	-618.42102	927.53143	-729.45575	-578.01135	879.89868	-728.36768	-663.76862	852.28448	-1141.32190	-381.51913	1388.44568	-1231.29565	-320.42160	1198.51550	-1245.63025	-310.17957	1076.57800	-1267.22095	-300.34845	957.14862	-1239.59241	-323.80298	805.84436	-1283.33496	-274.61105	822.37762	-1283.99524	-288.69443	737.85065	-877.34430	-462.83514	941.48633	-1096.60413	-479.40985	963.91010	-914.73065	-306.57272	961.94653	-1080.58911	-323.52878	978.22662	-827.30219	-394.13501	616.07294	-840.81451	-398.77185	453.31952	-848.99792	-193.43784	315.53815	-887.68188	-51.48266	220.63795	-934.43237	-22.89182	247.63875	-895.71344	-82.13572	73.79456	-1162.07703	-494.08002	632.99060	-1131.22339	-537.27521	516.49670	-1120.58997	-514.23712	248.96860	-1064.74634	-511.35007	67.21783	-1017.36078	-475.00885	44.70236	-1071.30737	-666.69867	31.67619	-971.35309	-345.08572	1685.25378															 
